<svg id="e1h1x47s574t1" xmlns="http://www.w3.org/2000/svg" xmlns:xlink="http://www.w3.org/1999/xlink" viewBox="0 0 839.700000 841" shape-rendering="geometricPrecision" text-rendering="geometricPrecision"><style><![CDATA[#e1h1x47s574t2_tr {animation: e1h1x47s574t2_tr__tr 3000ms linear infinite normal forwards}@keyframes e1h1x47s574t2_tr__tr { 0% {transform: translate(421.054963px,411.740249px) rotate(0deg)} 73.333333% {transform: translate(421.054963px,411.740249px) rotate(0deg)} 83.333333% {transform: translate(421.054963px,411.740249px) rotate(10deg)} 93.333333% {transform: translate(421.054963px,411.740249px) rotate(0deg)} 100% {transform: translate(421.054963px,411.740249px) rotate(0deg)} }#e1h1x47s574t6 {animation: e1h1x47s574t6_c_o 3000ms linear infinite normal forwards}@keyframes e1h1x47s574t6_c_o { 0% {opacity: 1} 66.666667% {opacity: 1} 100% {opacity: 0} }#e1h1x47s574t10_tr {animation: e1h1x47s574t10_tr__tr 3000ms linear infinite normal forwards}@keyframes e1h1x47s574t10_tr__tr { 0% {transform: translate(740.008645px,370.890322px) rotate(0deg)} 6.666667% {transform: translate(740.008645px,370.890322px) rotate(22.490147deg)} 20% {transform: translate(740.008645px,370.890322px) rotate(2deg)} 40% {transform: translate(740.008645px,370.890322px) rotate(25deg)} 57.666667% {transform: translate(740.008645px,370.890322px) rotate(0deg)} 100% {transform: translate(740.008645px,370.890322px) rotate(0deg)} }#e1h1x47s574t11_tr {animation: e1h1x47s574t11_tr__tr 3000ms linear infinite normal forwards}@keyframes e1h1x47s574t11_tr__tr { 0% {transform: translate(370.008645px,160.890322px) rotate(0deg)} 10% {transform: translate(370.008645px,160.890322px) rotate(13.240246deg)} 30% {transform: translate(370.008645px,160.890322px) rotate(2deg)} 50% {transform: translate(370.008645px,160.890322px) rotate(14deg)} 66.666667% {transform: translate(370.008645px,160.890322px) rotate(0deg)} 100% {transform: translate(370.008645px,160.890322px) rotate(0deg)} }#e1h1x47s574t12_to {animation: e1h1x47s574t12_to__to 3000ms linear infinite normal forwards}@keyframes e1h1x47s574t12_to__to { 0% {transform: translate(-59.795286px,-55.182201px)} 6.666667% {transform: translate(-59.795286px,-55.182201px)} 20% {transform: translate(-37.034590px,20.169569px)} 33.333333% {transform: translate(-37.034590px,-14.245912px)} 46.666667% {transform: translate(-3.561862px,48.877448px)} 66.666667% {transform: translate(-59.800000px,-55.180000px)} 100% {transform: translate(-59.800000px,-55.180000px)} }]]></style><g id="e1h1x47s574t2_tr" transform="translate(421.054963,411.740249) rotate(0)"><g id="e1h1x47s574t2" transform="translate(-421.043550,-411.721572)"><path id="e1h1x47s574t3" d="M839.580000,422C845.140000,647.480000,646.780000,852,402.520000,840.520000C185.090000,830.360000,-1.690000,657.460000,0,414.760000C1.580000,190.510000,181.350000,-7.280000,437.750000,0.210000C650.400000,6.410000,844.110000,186.770000,839.580000,422Z" fill="rgb(239,237,228)" stroke="none" stroke-width="1"/><g id="e1h1x47s574t4" transform="matrix(1 0 0 1 -0.00864548000033 -0.89032246569843)"><path id="e1h1x47s574t5" d="M585.510000,195.920000C591.180000,188.240000,596.030000,190.010000,598.440000,198.010000C599.890000,202.830000,599.010000,208.390000,599.010000,213.610000C599.010000,310.090000,599.330000,406.610000,598.650000,503.050000C598.550000,517.190000,602.890000,525.290000,615.150000,531.850000C638.610000,544.400000,661,559,684.530000,571.380000C695.750000,577.260000,696.160000,581.680000,689.530000,591.870000C660.740000,636.250000,623.180000,670.870000,576.140000,694.650000C514.880000,725.590000,450.290000,737.170000,382.560000,721.820000C254,692.670000,175.290000,612.230000,148.090000,484.310000C134.270000,419.310000,144.980000,355.250000,175.610000,295.310000C180.610000,285.500000,186.070000,284.620000,194.900000,289.730000C273.120000,335.040000,351.170000,380.660000,429.900000,425.110000C453.520000,438.460000,475.500000,455.020000,501.550000,463.930000C509.550000,458.520000,506.400000,450.230000,506.410000,443.160000Q506.720000,289.260000,506.600000,135.360000C506.600000,127.360000,505.140000,118.960000,511.140000,112.090000C519.240000,116.790000,515.510000,124.650000,515.530000,130.980000C515.790000,238.500000,515.960000,346.040000,515.440000,453.560000C515.360000,468.360000,517.700000,478.120000,533.080000,484.670000C551.010000,492.320000,566.520000,505.240000,584.880000,512.600000C591.410000,518.460000,590.150000,526.350000,590.180000,533.770000C590.300000,568.640000,590.180000,603.500000,590.250000,638.360000Q590.250000,428.660000,590.150000,218.970000C590.120000,211.110000,592.650000,202.460000,585.510000,195.920000Z" transform="matrix(0.99999239419325 0.00390019943758 -0.00390019943758 0.99999239419325 3.48143634499985 -0.57353380000006)" fill="rgb(43,68,255)" stroke="none" stroke-width="1"/><g id="e1h1x47s574t6"><path id="e1h1x47s574t7" style="isolation:isolate" d="M936.927290,716.084471C943.097227,783.299266,722.976970,844.265959,451.921445,840.843811C210.639193,837.815151,3.369272,786.274269,5.244666,713.926253C6.997993,647.078117,206.488912,588.117613,491.016205,590.350356C726.994087,592.198554,941.954235,645.963236,936.927290,716.084471Z" transform="matrix(0.46232399554267 0.27319303713299 -0.16224295767777 0.27456341211849 440.87157834457162 121.82717232890491)" fill="rgb(239,237,228)" stroke="none" stroke-width="1"/><path id="e1h1x47s574t8" style="isolation:isolate" d="M678.263216,259.660953C682.847112,548.504248,519.310851,810.497465,317.932715,795.791411C138.674350,782.776297,-15.314876,561.288779,-13.921569,250.386404C-12.618951,-36.881242,135.590938,-290.253227,346.977797,-280.658424C522.295330,-272.716130,681.997937,-41.672239,678.263216,259.660953Z" transform="matrix(0.46232399554267 0.27319303713299 -0.16224295767777 0.27456341211849 440.87157834457162 121.82717232890491)" fill="rgb(239,237,228)" stroke="none" stroke-width="1"/></g><g id="e1h1x47s574t9"><g id="e1h1x47s574t10_tr" transform="translate(740.008645,370.890322) rotate(0)"><path id="e1h1x47s574t10" d="M585.510000,195.920000C589.940000,194.920000,595.030000,192.440000,595.600000,200.210000C595.850000,203.680000,595.720000,207.210000,595.720000,210.660000Q596.020000,427.520000,596.070000,644.390000C596.070000,650.290000,600.740000,661.250000,591.230000,661.540000C580.530000,661.870000,585.910000,650.610000,585.810000,644.900000C585.050000,600.800000,585.070000,556.690000,584.810000,512.580000Z" transform="translate(-740.008645,-370.890322)" fill="rgb(22,21,17)" stroke="none" stroke-width="1"/></g><g id="e1h1x47s574t11_tr" transform="translate(370.008645,160.890322) rotate(0)"><path id="e1h1x47s574t11" d="M511.110000,112.070000C511.670000,117.220000,512.700000,122.380000,512.700000,127.540000Q512.850000,292,512.650000,456.460000C512.650000,461.120000,515.710000,467.760000,509.120000,470.100000C505.770000,471.290000,503.600000,466.660000,501.520000,463.910000Q501.790000,296.960000,502.280000,130C502.310000,123.410000,496.590000,112.230000,511.110000,112.070000Z" transform="translate(-370.008645,-160.890322)" fill="rgb(46,44,41)" stroke="none" stroke-width="1"/></g></g></g><g id="e1h1x47s574t12_to" transform="translate(-59.795286,-55.182201)"><path id="e1h1x47s574t12" d="M364.617838,232.999247C383.669888,233.186616,398.283566,248.085724,397.663357,266.699918C397.031315,284.827932,381.943394,299.079072,363.810274,298.675497C345.539947,298.397673,330.538638,283.537331,330.738914,265.924595C330.958571,246.922741,345.449500,232.837721,364.617838,232.999247Z" transform="translate(0,0)" fill="rgb(237,88,74)" stroke="none" stroke-width="1"/></g></g></g></svg>